<svg id="图层_1" data-name="图层 1" xmlns="http://www.w3.org/2000/svg" viewBox="0 0 104.79 102.44"><title>aiicy_cube</title><path d="M735.7,358.94c0,3.69.15,7.4-.09,11.08a4.63,4.63,0,0,1-1.84,3.23c-6.39,3.88-12.88,7.61-19.41,11.24a4,4,0,0,1-3.18.08c-6.32-3.15-6.29-3.2-6.29-10.24,0-3,.17-6-.09-9a4.84,4.84,0,0,0-1.82-3.24c-3.48-2.31-7.11-4.42-10.79-6.43-1.62-.89-1.95-2-2.2-3.77-.67-4.69,1-7.47,5.33-9.55,5.37-2.59,10.34-6,15.58-8.89a4.16,4.16,0,0,1,3.43,0q10,5.49,19.69,11.36a3.94,3.94,0,0,1,1.59,2.78C735.81,351.35,735.7,355.14,735.7,358.94ZM733.5,348C727,351.79,721,355.28,715,358.6a3.69,3.69,0,0,0-2.14,3.8c.1,5.8,0,11.59,0,17.39,0,.83.16,1.65.29,2.85,6.67-3.83,13-7.43,19.24-11.12a2.62,2.62,0,0,0,1-1.93C733.52,362.62,733.5,355.65,733.5,348Zm-1-1.77C726,342.53,720,339,713.93,335.63a3.92,3.92,0,0,0-3.18.27c-4.89,2.68-9.69,5.52-14.51,8.32-1.22.71-2.4,1.48-3.9,2.4,6.42,3.72,12.34,7.19,18.33,10.55a3.2,3.2,0,0,0,2.66.07C719.58,353.75,725.75,350.14,732.47,346.26Z" transform="translate(-630.96 -333.07)"/><path d="M660.5,409.75c0-3.6.13-7.2-.05-10.79a3.6,3.6,0,0,1,2.37-4c1.09-.48,2-1.41,3.13-1.72a5.24,5.24,0,0,1,3.46,0c4,2.08,7.88,4.31,11.68,6.71a3.73,3.73,0,0,0,4.59,0c3.55-2.22,7.29-4.14,10.84-6.36,1.64-1,2.84-.92,4.63-.16,4.05,1.74,5.36,4.4,5.06,8.77-.42,6.17,0,12.39-.19,18.58a4.5,4.5,0,0,1-1.81,3.2q-9.44,5.79-19.13,11.18a4.13,4.13,0,0,1-3.42,0c-6.46-3.58-12.79-7.4-19.22-11a3.45,3.45,0,0,1-2-3.57C660.58,416.94,660.5,413.34,660.5,409.75Zm21.6,23.38c0-7.74.07-14.83-.08-21.91a4,4,0,0,0-1.82-2.62c-4.65-2.9-9.4-5.65-14.12-8.44-1-.57-2-1.11-3.27-1.84,0,7.66,0,14.75,0,21.83a2.94,2.94,0,0,0,1,2.18C669.74,425.89,675.66,429.34,682.1,433.13Zm2.41,0c6.47-3.8,12.4-7.22,18.23-10.82a3.83,3.83,0,0,0,1.11-2.78c.13-3.39.05-6.78.05-10.17s0-7.06,0-11.18c-6.51,3.85-12.42,7.3-18.27,10.87a2.94,2.94,0,0,0-1.08,2.16C684.47,418.32,684.5,425.4,684.5,433.17Z" transform="translate(-630.96 -333.07)"/><path d="M631,358.85c0-3.7-.15-7.41.09-11.09a4.61,4.61,0,0,1,1.86-3.19q9.33-5.7,18.9-11a4.47,4.47,0,0,1,3.69-.12q9.69,5.38,19.12,11.2a5.32,5.32,0,0,1,1.79,3.28c.9,4.48-.41,7.7-5,9.63-3.36,1.4-7.57,3.07-9.12,5.87s-.51,7.37-.6,11.15c0,.1,0,.2,0,.3,0,6.74-.44,7.44-6.76,10a3.18,3.18,0,0,1-2.41-.27c-6.69-3.78-13.37-7.59-20-11.55a3.93,3.93,0,0,1-1.5-2.82C630.9,366.45,631,362.65,631,358.85Zm2.32-10.75c0,7.7,0,14.85,0,22a2,2,0,0,0,.86,1.41c6.34,3.7,12.72,7.35,19.57,11.28,0-7.72,0-14.87,0-22a2,2,0,0,0-.85-1.39C646.55,355.69,640.16,352,633.32,348.11Zm41.15-1.54c-6.79-3.93-13.14-7.64-19.55-11.24a2.66,2.66,0,0,0-2.15.26c-6.06,3.43-12.07,6.93-18.53,10.67,6.78,3.92,13.2,7.67,19.69,11.31.49.28,1.53-.07,2.15-.42C662,353.75,668,350.3,674.47,346.56Z" transform="translate(-630.96 -333.07)"/><path d="M681.78,387.71c0-3.77,1.23-8.21-.35-11.12s-5.94-4-9.1-5.94c-2.31-1.39-4.69-2.66-6.94-4.14A15.87,15.87,0,0,1,663,364a12.16,12.16,0,0,1,3.27.78c5,2.78,9.88,5.64,14.74,8.6a3.75,3.75,0,0,0,4.56.05c5.09-3.15,10.31-6.09,15.53-9a8.63,8.63,0,0,1,2.57-.53c-.56.77-1,1.8-1.7,2.26-5.11,3.12-10.26,6.18-15.47,9.12a3.49,3.49,0,0,0-2,3.57q.14,9.14,0,18.29c0,.87-.76,1.72-1.17,2.59a8.61,8.61,0,0,1-1.13-2.69c-.14-3.09-.05-6.19-.05-9.29Z" transform="translate(-630.96 -333.07)"/></svg>